<?xml version="1.0" encoding="utf-8"?>
<!-- Generator: Adobe Illustrator 19.2.1, SVG Export Plug-In . SVG Version: 6.00 Build 0)  -->
<svg version="1.1" id="layer" xmlns="http://www.w3.org/2000/svg" xmlns:xlink="http://www.w3.org/1999/xlink" x="0px" y="0px"
	 viewBox="0 0 652 652" style="enable-background:new 0 0 652 652;" xml:space="preserve">
<style type="text/css">
	.st0{fill:#0C1D37;}
	.st1{fill:#FF6531;}
</style>
<path class="st0" d="M309.3,296.8c-5.1,0-9.7,1-14,2.9c-4.3,1.9-7.8,4.7-10.6,8.2c-2.4-3.6-5.5-6.4-9.4-8.3c-3.9-1.9-8.2-2.8-13-2.8
	c-4.4,0-8.4,0.8-12.1,2.3c-3.7,1.5-6.8,3.7-9.3,6.6v-7.8h-18.8v68h19.7v-34.1c0-5.9,1.3-10.3,4-13.3c2.7-3,6.3-4.5,10.9-4.5
	c8.6,0,12.9,5.4,12.9,16.1v35.9h19.7v-34.1c0-5.9,1.3-10.3,4-13.3c2.7-3,6.4-4.5,11-4.5c4.1,0,7.3,1.3,9.5,4
	c2.2,2.7,3.4,6.7,3.4,12.1v35.9h19.7v-38.9c0-10-2.5-17.6-7.5-22.6C324.5,299.3,317.8,296.8,309.3,296.8z M404.9,301.1
	c-5.4-2.9-11.4-4.3-18.1-4.3c-6.8,0-13,1.5-18.5,4.5c-5.5,3-9.9,7.2-13,12.5c-3.2,5.4-4.7,11.4-4.7,18c0,6.7,1.6,12.8,4.8,18.1
	c3.2,5.3,7.8,9.5,13.7,12.5c5.9,3,12.7,4.5,20.4,4.5c12.3,0,21.7-3.7,28.1-11l-10.5-11.4c-2.4,2.3-4.9,3.9-7.7,5
	c-2.7,1.1-5.9,1.6-9.4,1.6c-5.1,0-9.4-1.2-12.9-3.7c-3.5-2.4-5.6-5.8-6.6-10h51.5c0.3-3.3,0.4-5.1,0.4-5.3c0-7.1-1.5-13.3-4.6-18.6
	C414.5,308.1,410.2,303.9,404.9,301.1z M370.1,325.9c0.7-4.4,2.5-7.8,5.6-10.4c3-2.5,6.8-3.8,11.3-3.8c4.4,0,8.1,1.3,11.1,3.9
	c3,2.6,4.9,6,5.6,10.3H370.1z M486.9,301.3c-5.6-3-12.1-4.5-19.2-4.5c-7.2,0-13.6,1.5-19.3,4.5c-5.7,3-10.1,7.1-13.3,12.5
	c-3.2,5.3-4.8,11.3-4.8,18.1c0,6.7,1.6,12.8,4.8,18.1c3.2,5.3,7.6,9.5,13.3,12.5c5.7,3,12.1,4.5,19.3,4.5c7.2,0,13.6-1.5,19.2-4.5
	c5.6-3,10.1-7.1,13.3-12.5c3.2-5.3,4.8-11.3,4.8-18.1c0-6.7-1.6-12.8-4.8-18.1C497,308.4,492.6,304.3,486.9,301.3z M480.2,345.5
	c-3.2,3.4-7.4,5.1-12.5,5.1c-5.1,0-9.2-1.7-12.5-5.1c-3.3-3.4-4.9-8-4.9-13.7c0-5.7,1.6-10.3,4.9-13.7c3.3-3.4,7.5-5.1,12.5-5.1
	c5.1,0,9.2,1.7,12.5,5.1c3.2,3.4,4.9,8,4.9,13.7C485,337.5,483.4,342.1,480.2,345.5z M608,297.8l-16.6,46l-16.2-46h-16.7l-16.7,46
	l-16.1-46h-18.6l24.5,68h19l15.8-42.2l15.3,42.2h19l24.7-68H608z"/>
<path class="st1" d="M158.7,258.7c-1.3,0.3-30.8,6.8-61.7,18.1c-30.9-11.3-60.4-17.8-61.7-18.1l-9.9-2.2v76.9
	c0,5.4,0.8,10.5,2.3,15.5c0.7,2.5,1.7,5,2.8,7.3c10.5,23,36.4,39.3,66.5,39.3c34.6,0,63.6-21.5,70.1-49.9c0.2-0.9,0.4-1.8,0.6-2.8
	c0.4-2.1,0.6-4.1,0.7-6.3c0.1-1.1,0.1-80.1,0.1-80.1L158.7,258.7z M152.3,276.9v28.3c-7.9-6.5-18.6-12.9-32.3-19.1
	C132.9,282,144.6,278.9,152.3,276.9z M97,379.3c-30.5,0-55.3-20.6-55.3-45.9c0-5.5,5.5-20.2,55.3-39.3
	c49.8,19.1,55.3,33.8,55.3,39.3c0,1.6-0.1,3.1-0.3,4.7c-0.3,2.3-0.8,4.6-1.5,6.8C144.4,364.7,122.8,379.3,97,379.3z M41.7,276.9
	c7.8,2,19.4,5.1,32.3,9.2c-13.7,6.2-24.5,12.6-32.3,19.1V276.9z"/>
</svg>
