<svg width="601" height="140" viewBox="0 0 601 140" fill="none" xmlns="http://www.w3.org/2000/svg">
<g clip-path="url(#clip0_1_2)">
<path d="M284.3 40.8C279.2 40.8 274.6 41.8 270.3 43.7C266 45.6 262.5 48.4 259.7 51.9C257.3 48.3 254.2 45.5 250.3 43.6C246.4 41.7 242.1 40.8 237.3 40.8C232.9 40.8 228.9 41.6 225.2 43.1C221.5 44.6 218.4 46.8 215.9 49.7V41.9H197.1V109.9H216.8V75.8C216.8 69.9 218.1 65.5 220.8 62.5C223.5 59.5 227.1 58 231.7 58C240.3 58 244.6 63.4 244.6 74.1V110H264.3V75.9C264.3 70 265.6 65.6 268.3 62.6C271 59.6 274.7 58.1 279.3 58.1C283.4 58.1 286.6 59.4 288.8 62.1C291 64.8 292.2 68.8 292.2 74.2V110.1H311.9V71.2C311.9 61.2 309.4 53.6 304.4 48.6C299.5 43.3 292.8 40.8 284.3 40.8ZM379.9 45.1C374.5 42.2 368.5 40.8 361.8 40.8C355 40.8 348.8 42.3 343.3 45.3C337.8 48.3 333.4 52.5 330.3 57.8C327.1 63.2 325.6 69.2 325.6 75.8C325.6 82.5 327.2 88.6 330.4 93.9C333.6 99.2 338.2 103.4 344.1 106.4C350 109.4 356.8 110.9 364.5 110.9C376.8 110.9 386.2 107.2 392.6 99.9L382.1 88.5C379.7 90.8 377.2 92.4 374.4 93.5C371.7 94.6 368.5 95.1 365 95.1C359.9 95.1 355.6 93.9 352.1 91.4C348.6 89 346.5 85.6 345.5 81.4H397C397.3 78.1 397.4 76.3 397.4 76.1C397.4 69 395.9 62.8 392.8 57.5C389.5 52.1 385.2 47.9 379.9 45.1ZM345.1 69.9C345.8 65.5 347.6 62.1 350.7 59.5C353.7 57 357.5 55.7 362 55.7C366.4 55.7 370.1 57 373.1 59.6C376.1 62.2 378 65.6 378.7 69.9H345.1ZM461.9 45.3C456.3 42.3 449.8 40.8 442.7 40.8C435.5 40.8 429.1 42.3 423.4 45.3C417.7 48.3 413.3 52.4 410.1 57.8C406.9 63.1 405.3 69.1 405.3 75.9C405.3 82.6 406.9 88.7 410.1 94C413.3 99.3 417.7 103.5 423.4 106.5C429.1 109.5 435.5 111 442.7 111C449.9 111 456.3 109.5 461.9 106.5C467.5 103.5 472 99.4 475.2 94C478.4 88.7 480 82.7 480 75.9C480 69.2 478.4 63.1 475.2 57.8C472 52.4 467.6 48.3 461.9 45.3ZM455.2 89.5C452 92.9 447.8 94.6 442.7 94.6C437.6 94.6 433.5 92.9 430.2 89.5C426.9 86.1 425.3 81.5 425.3 75.8C425.3 70.1 426.9 65.5 430.2 62.1C433.5 58.7 437.7 57 442.7 57C447.8 57 451.9 58.7 455.2 62.1C458.4 65.5 460.1 70.1 460.1 75.8C460 81.5 458.4 86.1 455.2 89.5ZM583 41.8L566.4 87.8L550.2 41.8H533.5L516.8 87.8L500.7 41.8H482.1L506.6 109.8H525.6L541.4 67.6L556.7 109.8H575.7L600.4 41.8H583Z" fill="#0C1D37"/>
<path d="M133.7 2.70001C132.4 3.00001 102.9 9.49999 72 20.8C41.1 9.49999 11.6 3.00001 10.3 2.70001L0.399994 0.5V77.4C0.399994 82.8 1.2 87.9 2.7 92.9C3.4 95.4 4.39999 97.9 5.49999 100.2C16 123.2 41.9 139.5 72 139.5C106.6 139.5 135.6 118 142.1 89.6C142.3 88.7 142.5 87.8 142.7 86.8C143.1 84.7 143.3 82.7 143.4 80.5C143.5 79.4 143.5 0.399994 143.5 0.399994L133.7 2.70001ZM127.3 20.9V49.2C119.4 42.7 108.7 36.3 95 30.1C107.9 26 119.6 22.9 127.3 20.9ZM72 123.3C41.5 123.3 16.7 102.7 16.7 77.4C16.7 71.9 22.2 57.2 72 38.1C121.8 57.2 127.3 71.9 127.3 77.4C127.3 79 127.2 80.5 127 82.1C126.7 84.4 126.2 86.7 125.5 88.9C119.4 108.7 97.8 123.3 72 123.3ZM16.7 20.9C24.5 22.9 36.1 26 49 30.1C35.3 36.3 24.5 42.7 16.7 49.2V20.9Z" fill="#FF6531"/>
</g>
<defs>
<clipPath id="clip0_1_2">
<rect width="601" height="140" fill="white"/>
</clipPath>
</defs>
</svg>
